<svg width="800" height="250" viewBox="0 0 800 250">
            <!-- H -->
            <path d="m 391.06981,-29.736 v -11.376 h 13.176 V -50.4 h -22.968 V 0 h 9.792 v -20.448 h 11.592 v -9.288 z" 
                  fill="#7824d5" 
                  transform="translate(0 120) translate(0 21.776) scale(1.56) translate(-381.27781 50.4)"/>
            
            <!-- L -->
            <path d="m 432.63744,0 v -9.288 h -15.552 V -50.4 h -9.792 V 0 Z" 
                  fill="#8239d9" 
                  transform="translate(0 120) translate(40.584 21.776) scale(1.56) translate(-407.29344 50.4)"/>
            
            <!-- E -->
            <path d="m 444.50731,-29.736 v -11.376 h 14.76 V -50.4 h -24.552 V 0 h 24.552 v -9.288 h -14.76 v -11.16 h 12.816 v -9.288 z" 
                  fill="#8b4edd" 
                  transform="translate(0 120) translate(83.362 21.776) scale(1.56) translate(-434.71531 50.4)"/>
            
            <!-- E -->
            <path d="m 472.91356,-29.736 v -11.376 h 14.76 V -50.4 h -24.552 V 0 h 24.552 v -9.288 h -14.76 v -11.16 h 12.816 v -9.288 z" 
                  fill="#9563e1" 
                  transform="translate(0 120) translate(127.676 21.776) scale(1.56) translate(-463.12156 50.4)"/>
            
            <!-- T -->
            <path d="m 507.65581,-41.112 h 9.288 V -50.4 h -28.368 v 9.288 h 9.288 V 0 h 9.792 z" 
                  fill="#9f79e5" 
                  transform="translate(0 120) translate(167.385 21.776) scale(1.56) translate(-488.57581 50.4)"/>
            
            <!-- 6 -->
            <path d="m 527.65831,-50.4 h -11.088 V 0 h 11.088 c -4.68,-1.944 -9.288,-6.264 -9.288,-14.76 v -20.88 c 0,-8.496 4.608,-12.816 9.288,-14.76 z m 0.504,35.64 c 0,4.536 2.736,6.336 5.544,6.336 2.808,0 5.544,-1.8 5.544,-6.336 v -5.688 h 9.792 v -9.288 h -9.792 v -5.904 c 0,-4.536 -2.736,-6.336 -5.544,-6.336 -2.808,0 -5.544,1.8 -5.544,6.336 z M 539.75431,0 h 9.288 v -14.76 c 0,8.496 -4.608,12.816 -9.288,14.76 z m 0,-50.4 c 4.68,1.944 9.288,6.264 9.288,14.76 V -50.4 Z" 
                  fill="#a88ee8" 
                  transform="translate(0 120) translate(211.057 21.776) scale(1.56) translate(-516.57031 50.4)"/>
            
            <!-- R -->
            <path d="m 559.86144,-50.4 h -11.088 V 0 h 11.088 c -4.68,-1.944 -9.288,-6.264 -9.288,-14.76 v -20.88 c 0,-8.496 4.608,-12.816 9.288,-14.76 z m 0.504,35.64 c 0,4.536 2.736,6.336 5.544,6.336 2.808,0 5.544,-1.8 5.544,-6.336 v -20.88 c 0,-4.536 -2.736,-6.336 -5.544,-6.336 -2.808,0 -5.544,1.8 -5.544,6.336 z M 571.95744,0 h 11.16 v -50.4 h -11.16 c 4.68,1.944 9.288,6.264 9.288,14.76 v 20.88 c 0,8.496 -4.608,12.816 -9.288,14.76 z" 
                  fill="#b2a3ec" 
                  transform="translate(0 120) translate(261.294 21.776) scale(1.56) translate(-548.77344 50.4)"/>
            
            <!-- R (second one) -->
            <path d="M 583.08594,-50.4 V 0 h 2.664 v -50.4 z m 12.384,50.4 h 10.872 l -7.056,-15.984 h -3.816 z m 0,-25.344 h 4.032 c 1.944,0 5.904,-1.152 5.904,-7.848 0,-6.696 -3.96,-7.92 -5.904,-7.92 h -4.032 z m 3.528,-25.056 c 9.144,0 15.768,5.976 15.768,17.208 0,6.984 -2.592,11.952 -6.768,14.688 L 616.13394,0 h 0.648 v -50.4 z" 
                  fill="#bbb8f0" 
                  transform="translate(0 120) translate(314.821 21.776) scale(1.56) translate(-583.08594 50.4)"/>
            
            <!-- E (final) -->
            <path d="M 616.76394,-50.4 V 0 h 2.52 v -50.4 z m 12.384,41.112 h 14.688 V 0 h 1.368 v -50.4 h -1.368 v 9.288 h -14.688 v 11.376 h 12.744 v 9.288 h -12.744 z" 
                  fill="#c5cdf4" 
                  transform="translate(0 120) translate(367.358 21.776) scale(1.56) translate(-616.76394 50.4)"/>
        </svg>
